# xmcd
#
# Track frame offsets: 
#        150
#        6308
#        19435
#        35564
#        44147
#        58345
#        73032
#        84513
#        96694
#        113419
#        127523
#        147928
#        167582
#        182658
#        195485
#        210641
#        223394
#        241960
#
# Disc length: 3399 seconds
#
# Revision: 0
# Processed by: cddbd v1.5.1PL0 Copyright (c) Steve Scherf et al.
# Submitted via: ExactAudioCopy v0.95a5
#
DISCID=0d0d4512
DTITLE=The Highwaymen - Live at The Greek Theater
DYEAR=1995
DGENRE=Country
TTITLE0=Intro
TTITLE1=Highwayman
TTITLE2=It Is What It Is
TTITLE3=Only Daddy That Will Walk the Line
TTITLE4=Folsom Prison Blues
TTITLE5=Me and Bobby McGee
TTITLE6=Blue Eyes Crying In The Rain
TTITLE7=I'm Gonna Live Forever
TTITLE8=I've Always Been Crazy
TTITLE9=Ring of Fire
TTITLE10=Sunday Morning Coming Down
TTITLE11=Help Me Make It Through the Night
TTITLE12=Still Is Still Moving to Me
TTITLE13=Everyone Get's Crazy Now and Then
TTITLE14=Will the Wolf Survive
TTITLE15=Get Rhythm
TTITLE16=Shipwrecked in the 80's
TTITLE17=If You Can't Undo the Wrong
EXTD=
EXTT0=
EXTT1=
EXTT2=
EXTT3=
EXTT4=
EXTT5=
EXTT6=
EXTT7=
EXTT8=
EXTT9=
EXTT10=
EXTT11=
EXTT12=
EXTT13=
EXTT14=
EXTT15=
EXTT16=
EXTT17=
PLAYORDER=
